# xmcd
#
# Track frame offsets: 
#        150
#        18122
#        43330
#        63677
#        88122
#
# Disc length: 1541 seconds
#
# Revision: 5
# Processed by: cddbd v1.5.2PL0 Copyright (c) Steve Scherf et al.
# Submitted via: ExactAudioCopy v0.99pb4
#
DISCID=3e060305
DTITLE=Mark 'Oh - Fade To Grey
DYEAR=1996
DGENRE=Electronic
TTITLE0=Fade To Grey (Radio Version)
TTITLE1=Fade To Grey (Long Version)
TTITLE2=Fade To Trance (Mix)
TTITLE3=Fade To House (Mix)
TTITLE4=Fade To Crazy (Mix)
EXTD=
EXTT0=
EXTT1=
EXTT2=
EXTT3=
EXTT4=
PLAYORDER=
